<svg width="83" height="420" viewBox="0 0 83 420" fill="none" xmlns="http://www.w3.org/2000/svg">
<g id="girl">
<path id="Ellipse 95" d="M29.2901 95.5C33.7447 95.5 37.3559 84.8308 37.3559 71.6697C37.3559 58.5086 33.7447 47.8394 29.2901 47.8394C24.8356 47.8394 21.2244 58.5086 21.2244 71.6697C21.2244 84.8308 24.8356 95.5 29.2901 95.5Z" fill="#090814"/>
<path id="Path 624" d="M25.2917 88.4873C25.2917 88.4873 25.7766 114.281 24.8068 114.281C23.8369 114.281 30.8696 126.461 30.8696 126.461L35.2348 119.296V110.698C35.2348 110.698 29.4167 108.549 31.8406 89.92C34.2646 71.2914 25.2917 88.4873 25.2917 88.4873Z" fill="#FFB9B9"/>
<path id="Path 625" d="M4.9218 371.503L4.19426 392.998L6.61946 395.148L8.55943 389.416L9.28695 371.503H4.9218Z" fill="#FFB9B9"/>
<path id="Path 626" d="M39.8434 383.684L41.0559 397.297L44.4509 403.746L48.0889 398.014L43.966 377.952L39.8434 383.684Z" fill="#FFB9B9"/>
<path id="Ellipse 96" d="M28.6943 98.8655C32.0368 98.8655 34.7465 90.8598 34.7465 80.9844C34.7465 71.1089 32.0368 63.1033 28.6943 63.1033C25.3518 63.1033 22.6422 71.1089 22.6422 80.9844C22.6422 90.8598 25.3518 98.8655 28.6943 98.8655Z" fill="#FFB9B9"/>
<path id="Path 627" d="M23.3526 156.554L21.655 154.405C21.655 154.405 18.7449 149.389 18.5022 139.358C18.2596 129.328 20.9274 116.428 20.9274 116.428L24.808 112.846L29.3669 123.808L29.4158 141.502L23.3526 156.554Z" fill="#FFB9B9"/>
<path id="Path 628" d="M21.6556 117.863L20.6854 116.431C20.6854 116.431 15.8353 115.714 15.3501 132.91C14.8649 150.106 13.1675 178.766 13.1675 178.766C13.1675 178.766 9.28698 198.828 9.5299 220.323L7.58993 238.951C7.58993 238.951 4.92242 266.178 8.07483 266.178C11.2273 266.178 10.9849 236.802 10.9849 236.802C10.9849 236.802 16.8052 195.245 17.2901 188.08C17.775 180.916 21.8979 147.24 20.6851 137.925C19.4724 128.611 21.6556 117.863 21.6556 117.863Z" fill="#FFB9B9"/>
<path id="Path 629" d="M25.2917 163.002V170.884C25.2917 170.884 26.9894 176.615 26.2618 180.198C25.5343 183.781 24.8068 190.941 24.8068 190.941L28.203 206.705L39.6002 209.572L41.8668 164.704L25.2917 163.002Z" fill="#FFB9B9"/>
<path id="Path 630" d="M35.9632 112.848L37.9032 109.981C37.9032 109.981 42.0257 101.383 45.4198 99.9506L55.8478 79.1726L62.6382 31.1671C62.6382 31.1671 62.3956 5.37327 64.3359 8.23684C66.2761 11.1004 66.0335 33.3139 66.0335 33.3139C66.0335 33.3139 62.3959 77.7363 59.2432 89.9173C56.0905 102.098 44.6944 122.162 44.6944 122.162C44.6944 122.162 41.5417 132.905 41.7843 137.925C42.027 142.946 35.9632 112.848 35.9632 112.848Z" fill="#FFB9B9"/>
<path id="Path 631" d="M26.9902 190.946C26.9902 190.946 24.3227 185.93 22.6251 194.528C20.9274 203.126 17.775 205.271 15.8347 231.069C13.8944 256.868 9.28696 297.703 8.0736 300.57C6.86024 303.436 1.76846 333.529 4.67857 375.802H9.52865L13.6512 314.899C13.6512 314.899 26.9893 266.178 27.9591 246.116L32.3243 321.348C32.3243 321.348 32.5669 350.008 36.2049 363.621L40.0854 390.847L45.1781 383.682L39.3579 314.898C39.3579 314.898 42.268 245.398 40.328 226.053L40.0494 200.69C40.0494 200.69 32.0829 201.693 26.9902 190.946Z" fill="#090814"/>
<path id="Path 632" d="M6.61947 389.416H3.70936C3.22445 389.416 -0.655796 398.731 1.04187 403.746C2.73954 408.761 5.40702 418.075 5.40702 418.075C5.40702 418.075 14.8649 421.629 15.1075 416.614C15.3501 411.598 10.9849 400.879 10.9849 400.879L9.77251 389.414C9.77251 389.414 7.347 381.534 6.61947 389.416Z" fill="#090814"/>
<path id="Path 633" d="M45.1784 396.58C45.1784 396.58 41.0559 395.864 40.3284 395.148C39.6008 394.432 38.1458 413.776 40.3284 415.21C42.5109 416.644 51.4839 418.792 51.4839 418.792C51.4839 418.792 58.5166 418.075 58.0316 412.344C57.5467 406.612 48.0889 395.148 48.0889 395.148C48.0889 395.148 46.8761 387.981 45.1784 396.58Z" fill="#090814"/>
<path id="Path 634" d="M26.0204 112.132L24.808 109.982L23.3529 113.564C23.3529 113.564 27.7181 122.162 26.7479 130.043C25.7778 137.925 21.6555 154.405 21.6555 154.405C21.6555 154.405 25.2917 166.586 25.2917 170.885C25.2917 170.885 34.7495 160.854 41.7822 170.885C41.7822 170.885 41.7822 156.555 42.7523 153.689C43.7225 150.822 44.2074 140.792 41.7822 132.194C40.0736 125.867 38.5331 119.16 37.1744 112.132L34.7492 107.833L33.5001 109.006C33.5001 109.006 35.9617 117.15 33.5368 117.867C31.1119 118.584 27.2328 116.429 26.0204 112.132Z" fill="#6C63FF"/>
<path id="Path 635" d="M35.1852 31.0407C34.4761 33.3791 33.5049 34.882 32.4505 35.2729C30.6272 36.042 32.0597 44.5064 32.0597 44.5064C31.9168 43.5106 31.8903 42.4026 31.9843 41.3574C32.0784 40.3122 32.2877 39.3894 32.5791 38.735C33.6223 36.042 35.1852 34.5037 35.1852 31.0407Z" fill="#090814"/>
<path id="Ellipse 97" d="M31.6701 52.9192C32.9116 52.9192 33.9181 49.9457 33.9181 46.2776C33.9181 42.6095 32.9116 39.6359 31.6701 39.6359C30.4286 39.6359 29.4221 42.6095 29.4221 46.2776C29.4221 49.9457 30.4286 52.9192 31.6701 52.9192Z" fill="#090814"/>
<path id="Path 636" d="M34.2945 52.8163C32.5581 50.136 29.5706 48.0316 27.9833 48.1797L28.3848 43.6442C29.7903 46.4644 32.7616 48.6094 34.696 48.2808L34.2945 52.8163Z" fill="#6C63FF"/>
<path id="Path 637" d="M30.707 53.2153C30.707 53.2153 27.9705 63.6062 22.4968 65.9199C17.023 68.2337 21.324 93.6403 21.324 93.6403C21.324 93.6403 19.7602 84.4005 22.8879 76.3153C26.0156 68.2301 30.707 63.6062 30.707 53.2153Z" fill="#090814"/>
<path id="Path 638" d="M30.9154 52.6024C30.9154 52.6024 32.4792 68.7727 34.8247 71.082C37.1701 73.3912 35.9974 97.6467 32.0881 99.9569C32.0881 99.9569 35.4111 86.6745 33.4564 76.2792C31.5018 65.8838 30.329 57.796 30.9154 52.6024Z" fill="#090814"/>
<path id="Rectangle 202" d="M72.9458 14.3296H56.2127V20.0613H72.9458V14.3296Z" fill="#090814"/>
<path id="Ellipse 98" d="M72.9458 34.3918C73.7494 34.3918 74.4009 26.6929 74.4009 17.1959C74.4009 7.69886 73.7494 0 72.9458 0C72.1422 0 71.4908 7.69886 71.4908 17.1959C71.4908 26.6929 72.1422 34.3918 72.9458 34.3918Z" fill="#090814"/>
<path id="Ellipse 99" d="M56.213 34.3918C57.0166 34.3918 57.668 26.6929 57.668 17.1959C57.668 7.69886 57.0166 0 56.213 0C55.4094 0 54.7579 7.69886 54.7579 17.1959C54.7579 26.6929 55.4094 34.3918 56.213 34.3918Z" fill="#090814"/>
<path id="Rectangle 203" d="M81.4338 399.819H64.7007V405.55H81.4338V399.819Z" fill="#090814"/>
<path id="Ellipse 100" d="M81.4338 419.881C82.2374 419.881 82.8889 412.182 82.8889 402.685C82.8889 393.188 82.2374 385.489 81.4338 385.489C80.6302 385.489 79.9788 393.188 79.9788 402.685C79.9788 412.182 80.6302 419.881 81.4338 419.881Z" fill="#090814"/>
<path id="Ellipse 101" d="M64.7007 419.881C65.5043 419.881 66.1558 412.182 66.1558 402.685C66.1558 393.188 65.5043 385.489 64.7007 385.489C63.8971 385.489 63.2457 393.188 63.2457 402.685C63.2457 412.182 63.8971 419.881 64.7007 419.881Z" fill="#090814"/>
</g>
</svg>
